<?xml version="1.0" encoding="UTF-8"?>
<svg id="Layer_1" data-name="Layer 1" xmlns="http://www.w3.org/2000/svg" version="1.1" viewBox="0 0 1080 1080">
  <defs>
    <style>
      .cls-1 {
        fill: #000;
      }

      .cls-1, .cls-2 {
        stroke-width: 0px;
      }

      .cls-2 {
        fill: #fff;
      }
    </style>
  </defs>
  <path class="cls-2" d="M-255.3,91.6l13.1-13.1-6.6-6.6-5.1,5.1c.4-1.8.5-3.6.4-5.4-.2-2-.7-4-1.6-5.9-.9-1.9-2.3-3.8-4-5.5-2.9-2.9-6.3-4.8-10.1-5.7s-7.8-.7-11.7.5c-2.5.8-4.9,2-7.2,3.6l-3.7-3.7,13.1-13.1-6.6-6.6-13.1,13.1-4-4c1.6-2.2,2.8-4.6,3.5-7,1.2-3.9,1.4-7.8.6-11.6-.9-3.8-2.8-7.2-5.8-10.2-1.8-1.8-4-3.2-6.4-4.2-2.5-1-4.9-1.5-7.2-1.5-.9,0-1.7,0-2.5.2l4.8-4.8-6.6-6.6-13.1,13.1-3.9-3.9c1.3-1.6,2.3-3.2,3.1-5,1.2-2.7,1.9-5.5,1.9-8.3,0-2.8-.4-5.6-1.5-8.3-1-2.7-2.6-5.1-4.8-7.3-2.5-2.5-5.2-4.3-8.1-5.5s-6-1.8-9.1-1.7-6.1.8-9.2,2.1c-1.4.6-2.8,1.4-4.1,2.3l-4.2-4.2c1.3-1.6,2.3-3.2,3.1-5,1.2-2.7,1.9-5.5,1.9-8.3,0-2.8-.4-5.6-1.5-8.3-1-2.7-2.6-5.1-4.8-7.3-2.5-2.5-5.2-4.3-8.2-5.5s-6-1.8-9.1-1.7c-3.1,0-6.2.8-9.2,2.1-1.4.6-2.8,1.4-4.1,2.3l-4.1-4.1,26.7-26.7-6.6-6.6-17.8,17.8c0-1.2,0-2.5-.2-3.9-.3-2.1-1-4.2-2-6.3-1-2.1-2.4-3.9-4-5.6-3-3-6.5-5-10.3-5.8-3.9-.9-7.8-.7-11.8.5-2.5.8-4.8,2-7.1,3.5l-33-32.9-5.2,5.2,32.7,32.7c-2.5,2.9-4.3,6-5.3,9.4-1.2,4-1.4,8-.5,11.9s2.9,7.4,5.9,10.4c1.5,1.5,3.3,2.8,5.2,3.7,2,.9,3.9,1.6,5.9,1.8,1.7.2,3.4.2,4.9,0l-4.6,4.6,6.6,6.6,15.2-15.2,3.8,3.8c-2.7,3-4.4,6.2-5.3,9.8-1,4.1-1,8.1.2,12.2,1.2,4.1,3.5,7.9,6.9,11.3,1.6,1.6,3.4,2.9,5.5,4.1,2.1,1.2,4.2,2.1,6.5,2.8,2.2.7,4.4,1.1,6.4,1.1l1.3-8c-3.1-.2-5.6-.8-7.6-1.6-2-.9-3.8-2.1-5.4-3.8-2.3-2.3-3.9-4.9-4.8-7.6-.8-2.7-.9-5.4-.2-8.1.6-2,1.6-4,3.1-5.8l25.6,25.6,3.9,3.9c-2.6,3-4.4,6.2-5.3,9.8-1,4.1-1,8.1.2,12.2,1.2,4.1,3.5,7.9,6.9,11.3,1.6,1.6,3.4,2.9,5.5,4.1s4.2,2.1,6.5,2.8c2.2.7,4.4,1.1,6.4,1.1l1.3-8c-3.1-.2-5.6-.8-7.6-1.6-2-.9-3.8-2.1-5.4-3.8-2.3-2.3-3.9-4.9-4.8-7.6-.9-2.7-.9-5.4-.2-8.1.6-2,1.6-4,3.1-5.8l25.6,25.6,3.9,3.9-29.1,29.1,6.6,6.6,18.4-18.4c0,.5,0,.9,0,1.4,0,2.5.6,5.1,1.6,7.7s2.5,4.9,4.5,6.8c2.9,2.9,6.3,4.8,10.1,5.6,3.8.8,7.7.6,11.7-.7,3.3-1.1,6.4-2.9,9.2-5.4l3.8,3.8-15.1,15.1,6.6,6.6,15.1-15.1,3.5,3.5c-2.5,2.8-4.2,5.9-5.3,9.2-1.3,4-1.5,7.9-.8,11.7.7,3.8,2.5,7.1,5.2,9.8,1.6,1.6,3.4,2.9,5.4,3.9,2,.9,4,1.6,6.1,2s4,.4,5.9.1c0,0,0,0,0,0l-5.1,5.1,6.6,6.6,15.1-15.1,22.6,22.6,10.8,10.8,5.2-5.2-33.4-33.3ZM-397-55.4c2.5-.9,4.9-.9,7.4-.3,2.4.7,4.8,2.2,7.1,4.5s2.5,3.1,3.1,5c.6,1.9.7,3.8.4,5.7-.3,1.9-1.1,3.6-2.4,5.2l-.4.4-18.7-18.7c1.2-.8,2.4-1.4,3.5-1.8M-422.7-65.3c-1.8,1.5-3.7,2.5-5.7,3.2-2.6.9-5.2,1.1-7.8.6-2.6-.5-4.8-1.8-6.8-3.8s-3.2-4.3-3.8-6.8c-.5-2.5-.3-5.1.6-7.8.7-2,1.7-3.9,3.2-5.7.5-.6,1-1.1,1.5-1.7,1.3-1.3,2.6-2.3,4.1-3.2,1.1-.6,2.1-1.1,3.3-1.5,2.6-.9,5.2-1.1,7.8-.6,2.6.5,4.8,1.8,6.8,3.8,2,2,3.2,4.3,3.8,6.8.5,2.6.3,5.1-.6,7.8-.4,1.1-.9,2.2-1.5,3.3-.8,1.4-1.9,2.8-3.2,4.1-.5.5-1.1,1-1.7,1.5M-361-19.4c2.5-.9,4.9-.9,7.4-.3,2.4.7,4.8,2.2,7.1,4.5s2.5,3.1,3.1,5c.6,1.9.7,3.8.4,5.7s-1.1,3.6-2.4,5.2l-.4.4-18.7-18.7c1.2-.8,2.3-1.4,3.5-1.8M-313.9,43.4c-1.7,1.4-3.5,2.4-5.4,2.9-2.6.8-5.1.9-7.6.4-2.5-.6-4.7-1.8-6.7-3.8s-3.3-4.2-3.8-6.8c-.6-2.5-.4-5.1.4-7.6.6-1.9,1.6-3.8,2.9-5.5.5-.6,1-1.1,1.5-1.7,1.3-1.3,2.7-2.3,4.1-3.1,1-.5,2-1,3-1.3,2.6-.8,5.1-.9,7.6-.4,2.5.6,4.7,1.9,6.7,3.9,2,2,3.3,4.2,3.8,6.8s.4,5-.4,7.6c-.3,1-.8,2-1.3,3-.8,1.4-1.9,2.8-3.2,4.1-.6.6-1.1,1.1-1.7,1.5M-266.9,90.4c-1.7,1.4-3.5,2.4-5.4,3-2.6.9-5.1,1-7.6.4-2.5-.6-4.8-1.8-6.8-3.8s-3.2-4.2-3.7-6.6-.4-5,.5-7.6c.6-1.9,1.6-3.7,3-5.4.5-.6,1-1.2,1.6-1.7,1.3-1.3,2.6-2.3,4-3.1,1-.6,2-1,3.1-1.4,2.6-.8,5.1-1,7.6-.4,2.5.5,4.7,1.8,6.6,3.7s3.3,4.2,3.8,6.8.4,5-.4,7.6c-.3,1.1-.8,2.1-1.4,3.1-.8,1.4-1.8,2.8-3.1,4-.6.6-1.2,1.1-1.8,1.6"/>
  <path class="cls-1" d="M828.8,589.7V123.2h-114.5v310.9c-10-11.4-21.8-22.2-35.6-32.5-21.5-15.9-45.8-28.5-72.8-37.8-27-9.3-55-13.9-83.9-13.9-52.6,0-99.7,13.2-141.1,39.5-41.5,26.3-74.3,62.2-98.4,107.8-15,28.4-25.3,59.4-31,92.8H15.9v91.1h231.6c3.3,47.4,15.2,90.2,35.7,128.4,24.5,45.6,57.6,81.5,99.5,107.8,41.9,26.3,89.5,39.5,142.8,39.5s52.8-4.4,78.4-13.3c25.6-8.9,48.2-20.7,67.8-35.6,17.3-13,31.5-27.1,42.8-42.1v79.9h114.5v-264.5h235.3v-91.2l-235.3-.2ZM717.5,681.1c-2.8,28.2-9.9,54-21.4,77.3-15.2,30.8-36.1,55-62.8,72.8-26.7,17.8-57.4,26.7-92.2,26.7s-65.6-8.9-92.2-26.7c-26.7-17.8-47.6-42-62.8-72.8-11.5-23.3-18.6-49.1-21.4-77.3-.9-9-1.4-18.2-1.4-27.7,0-22.5,2.6-43.6,7.6-63.3,3.7-14.7,8.7-28.6,15.2-41.7,15.2-30.7,36.1-55,62.8-72.8,26.7-17.8,57.4-26.7,92.2-26.7s65.6,8.9,92.2,26.7c26.7,17.8,47.6,42.1,62.8,72.8,6.5,13.1,11.5,27,15.2,41.7,5,19.7,7.6,40.8,7.6,63.3,0,9.5-.5,18.7-1.4,27.7Z"/>
</svg>