<?xml version="1.0" encoding="UTF-8"?>
<svg id="Layer_1" data-name="Layer 1" xmlns="http://www.w3.org/2000/svg" viewBox="0 0 302.98 187.63">
  <defs>
    <style>
      .cls-1 {
        fill: none;
        stroke: #e84545;
        stroke-miterlimit: 10;
        stroke-width: 9px;
      }
    </style>
  </defs>
  <g>
    <circle class="cls-1" cx="151.63" cy="54.94" r="33.12"/>
    <path class="cls-1" d="M96.7,165.82h103.59c7.16,0,12.39-6.71,10.7-13.67-4.16-17.13-17.33-44.27-59.09-44.27s-58.04,25.42-65.33,42.58c-3.09,7.28,2.22,15.36,10.13,15.36Z"/>
  </g>
  <g>
    <circle class="cls-1" cx="71.05" cy="58.67" r="29.03"/>
    <path class="cls-1" d="M101.81,107.66c-1.89,1.34-36.14,15.62-31.51,52.93.33,2.64-1.7,4.97-4.36,4.98-31.06.11-45.05.08-51.23.04-2.67-.02-4.75-2.28-4.57-4.94,1.08-15.35,12.5-60.36,91.63-53.12.06,0,.08.08.03.12Z"/>
  </g>
  <g>
    <circle class="cls-1" cx="231.92" cy="58.67" r="29.03"/>
    <path class="cls-1" d="M201.16,107.66c1.89,1.34,36.14,15.62,31.51,52.93-.33,2.64,1.7,4.97,4.36,4.98,31.06.11,45.05.08,51.23.04,2.67-.02,4.75-2.28,4.57-4.94-1.08-15.35-12.5-60.36-91.63-53.12-.06,0-.08.08-.03.12Z"/>
  </g>
</svg>