<?xml version="1.0" encoding="UTF-8"?>
<svg id="Layer_1" data-name="Layer 1" xmlns="http://www.w3.org/2000/svg" viewBox="0 0 250 250">
  <defs>
    <style>
      .cls-1 {
        fill: #e84545;
        stroke-width: 0px;
      }
    </style>
  </defs>
  <path class="cls-1" d="M125,17c28.85,0,55.97,11.23,76.37,31.63,20.4,20.4,31.63,47.52,31.63,76.37s-11.23,55.97-31.63,76.37c-20.4,20.4-47.52,31.63-76.37,31.63s-55.97-11.23-76.37-31.63c-20.4-20.4-31.63-47.52-31.63-76.37s11.23-55.97,31.63-76.37c20.4-20.4,47.52-31.63,76.37-31.63M125,4C58.17,4,4,58.17,4,125s54.17,121,121,121,121-54.17,121-121S191.83,4,125,4h0Z"/>
  <path class="cls-1" d="M125,60c35.84,0,65,29.16,65,65s-29.16,65-65,65-65-29.16-65-65,29.16-65,65-65M125,47c-43.08,0-78,34.92-78,78s34.92,78,78,78,78-34.92,78-78-34.92-78-78-78h0Z"/>
  <path class="cls-1" d="M125,109c8.82,0,16,7.18,16,16s-7.18,16-16,16-16-7.18-16-16,7.18-16,16-16M125,96c-16.02,0-29,12.98-29,29s12.98,29,29,29,29-12.98,29-29-12.98-29-29-29h0Z"/>
</svg>