<?xml version="1.0" encoding="UTF-8"?>
<svg id="Layer_1" data-name="Layer 1" xmlns="http://www.w3.org/2000/svg" viewBox="0 0 250 250">
  <defs>
    <style>
      .cls-1 {
        fill: #e84545;
        stroke-width: 0px;
      }
    </style>
  </defs>
  <path class="cls-1" d="M124.93,241.37c-28.35,0-56.69.01-85.04-.02-2.85,0-5.72-.07-8.53-.46-19.91-2.69-28.88-19.6-20.1-37.75.76-1.58,2.29-2.79.48-5.02-8.71-10.71-7.32-20.19,4.21-28.16,8.6-5.95,17.32-11.76,26.26-17.16,5.18-3.13,8.36-7.14,10.43-12.85,4.22-11.6,7.99-23.48,14.08-34.26,8.88-15.71,23.09-23.35,40.8-24.18,11.58-.54,23.23-.58,34.81,0,20.18,1.02,35.02,10.73,43.26,29.38,4.61,10.43,8.49,21.18,12.56,31.84,1.27,3.32,3.04,5.88,6.17,7.83,9.35,5.84,18.53,11.97,27.77,18.01,3.7,2.42,6.93,5.34,9.19,9.21,4.13,7.08,3.42,14.01-2.57,19.65-2.05,1.93-1.8,3.1-.72,5.26,9.64,19.26.76,35.95-20.63,38.24-7.53.81-15.2.33-22.8.34-23.21.03-46.42.01-69.63.01v.08ZM156.35,155.95c.35-7.22.64-14.44,1.09-21.66.15-2.36-.29-5.43,3.06-5.96,3.45-.54,4.4,2.4,5.41,4.85,3.7,8.97,7.42,17.94,10.98,26.97,2.12,5.37,5.42,9.5,10.68,12.08,12.48,6.11,24.91,12.32,37.39,18.43,1.35.66,2.83,1.19,4.31,1.4,5.37.74,8.32-2.95,6.55-8.13-1.15-3.37-3.52-5.77-6.35-7.86-9.49-7.04-19.63-13.1-29.66-19.31-3.96-2.45-6.45-5.62-8.06-9.9-3.95-10.51-7.85-21.05-12.26-31.37-7.29-17.09-20.11-26.24-39.07-26.1-10.66.08-21.32,0-31.98.01-17.17.02-29.55,8.01-36.79,23.32-4.79,10.13-8.83,20.65-12.55,31.22-2.28,6.48-5.73,11.15-11.87,14.44-6.68,3.59-12.92,8.03-19.22,12.29-3.93,2.66-7.95,5.34-11.29,8.65-2.86,2.83-5.02,6.9-2.11,10.79,2.88,3.84,6.9,2.13,10.39.46,12-5.77,23.94-11.69,35.93-17.48,5.77-2.78,9.69-7.05,12.02-13.08,3.64-9.41,7.61-18.68,11.45-28.01.91-2.22,2.11-4.24,4.99-3.66,2.54.51,3.22,2.69,3.21,4.81-.11,19.53,2.84,39.24-2.81,58.47-1.1,3.76-.02,5.02,3.49,5.91,10.33,2.6,20.62,5.38,30.85,8.34,3.82,1.11,7.39,1.17,11.17-.05,7.6-2.46,15.24-4.79,22.91-7.01,2.55-.74,3.47-1.8,2.57-4.48-4.21-12.47-4.73-25.37-4.43-38.38ZM114.68,212.49c-.87-2.02-2.1-2.17-3.14-2.48-12.97-3.78-26.11-6.83-39.36-9.44-9.52-1.87-19.1-3.33-28.76-4.26-8.23-.79-16.05.07-22.21,6.32-5.75,5.84-7.33,12.77-4.29,20.46,2.98,7.54,8.96,10.28,16.75,10.27,47.18-.07,94.36-.06,141.53-.07,14.08,0,28.15.02,42.23-.01,7.14-.02,12.61-3.09,15.41-9.72,2.9-6.86,1.84-13.44-2.93-19.25-4.83-5.89-11.44-7.99-18.72-8.21-8.03-.24-15.93,1.13-23.73,2.89-28.8,6.51-56.91,15.22-84.23,26.46-2.43,1-5.46,2.51-7.02-.77-1.77-3.73,1.6-4.87,4.21-6.03,4.66-2.06,9.35-4.04,14.26-6.16ZM202.63,188.72c-8.37-5.76-17.6-7.85-24.68-13.68-7.52-6.2-8.6-16.13-13.98-25.53,0,8.41-.31,15.19.09,21.93.4,6.81,1.4,13.61,3.78,20.09.66,1.78,1.27,3.9,3.85,3.24,9.89-2.54,19.97-4.18,30.94-6.06ZM84.81,150.79c-3.71,21.21-19.39,30.45-37.32,37.66,9.66,1.53,18.63,3.07,27.46,5.14,5.01,1.17,6.94-.54,8.13-4.99,3.27-12.28,2.7-24.75,1.73-37.81Z"/>
  <path class="cls-1" d="M91.41,42.27c.05-18.65,15-33.57,33.75-33.68,18.09-.11,33.5,15.71,33.36,34.24-.14,18.93-14.77,33.26-33.92,33.23-18.97-.03-33.25-14.57-33.2-33.79ZM124.55,68.68c14.76.06,26.25-11.06,26.47-25.63.22-14.75-11.38-26.56-26.11-26.59-14.52-.04-26.09,11.43-26.16,25.93-.07,14.59,11.35,26.23,25.8,26.29Z"/>
</svg>